<svg width="100" height="74" viewBox="0 0 100 74" fill="none" xmlns="http://www.w3.org/2000/svg">
<path d="M17 57L25.0009 43.7481C25.3847 43.1124 25.3847 42.3164 25.0009 41.6807L17 28.4287" stroke="white" stroke-width="17" stroke-linecap="round"/>
<path d="M35.4 17.0001L27.3991 30.252C27.0153 30.8877 27.0153 31.6838 27.3991 32.3195L35.4 45.5714" stroke="white" stroke-width="17" stroke-linecap="round"/>
<g style="mix-blend-mode:multiply">
<path d="M35.4 17.0001L27.3991 30.252C27.0153 30.8877 27.0153 31.6838 27.3991 32.3195L35.4 45.5714" stroke="#6D9CFB" stroke-width="17" stroke-linecap="round"/>
</g>
<g style="mix-blend-mode:multiply">
<path d="M17 57L25.0009 43.7481C25.3847 43.1124 25.3847 42.3164 25.0009 41.6807L17 28.4287" stroke="#0044CB" stroke-width="17" stroke-linecap="round"/>
</g>
<path d="M69.1365 51V27.522H60.4845V23.952H82.3245V27.522H73.7145V51H69.1365ZM83.2816 51.42C80.9856 51.42 79.0256 51.098 77.4016 50.454V46.59C78.0736 46.87 78.8576 47.108 79.7536 47.304C80.6776 47.472 81.5876 47.556 82.4836 47.556C84.3596 47.556 85.6616 47.178 86.3896 46.422C87.1456 45.638 87.5236 44.392 87.5236 42.684V23.952H92.1016V43.44C92.1016 46.016 91.3596 47.99 89.8756 49.362C88.4196 50.734 86.2216 51.42 83.2816 51.42Z" fill="#2656B5"/>
</svg>
